<svg version="1.1" id="Layer_1" xmlns="http://www.w3.org/2000/svg" xmlns:xlink="http://www.w3.org/1999/xlink" x="0px" y="0px"
	 width="100%" viewBox="0 0 270 270" enable-background="new 0 0 270 270" xml:space="preserve">
<path fill="#FEFEFE" opacity="1.000000" stroke="none" 
	d="
M148.000000,271.000000 
	C98.666664,271.000000 49.833332,271.000000 1.000000,271.000000 
	C1.000000,181.000000 1.000000,91.000000 1.000000,1.000000 
	C91.000000,1.000000 181.000000,1.000000 271.000000,1.000000 
	C271.000000,91.000000 271.000000,181.000000 271.000000,271.000000 
	C230.166672,271.000000 189.333328,271.000000 148.000000,271.000000 
M160.314423,10.810528 
	C144.988876,10.814809 129.663300,10.841034 114.337807,10.815128 
	C105.164406,10.799623 103.404472,11.907503 100.187111,20.231361 
	C71.512817,94.416641 42.839806,168.602432 14.203259,242.802292 
	C12.803978,246.427917 11.747585,250.185898 10.405679,254.264755 
	C12.526863,254.371704 13.829924,254.493164 15.133123,254.494690 
	C31.961596,254.514236 48.790115,254.537537 65.618561,254.514511 
	C73.812874,254.503296 76.198273,252.812546 78.866890,245.177078 
	C97.326317,192.361099 115.768669,139.539124 134.238693,86.726845 
	C134.619965,85.636635 135.268295,84.639832 136.153915,82.880592 
	C138.033752,87.197601 139.755249,90.605392 141.033875,94.171936 
	C153.411713,128.698532 165.738739,163.243423 178.029541,197.801117 
	C183.760284,213.914078 189.330383,230.084229 195.082458,246.189468 
	C196.620422,250.495636 198.487961,254.286514 204.356033,254.251328 
	C222.677307,254.141479 241.000778,254.410889 259.323547,254.510773 
	C260.254486,254.515839 261.186615,254.310379 262.527618,254.155731 
	C261.860107,251.866241 261.447815,249.944717 260.750397,248.132950 
	C231.284805,171.584885 201.752487,95.062469 172.392334,18.474031 
	C170.278381,12.959599 167.099503,10.279598 160.314423,10.810528 
M100.991615,198.303482 
	C112.740768,216.497269 124.489929,234.691071 136.659012,253.535126 
	C149.239334,233.885391 161.258621,215.112000 173.943771,195.298553 
	C149.112625,195.298553 125.691269,195.281769 102.270576,195.397827 
	C101.699982,195.400665 101.136719,196.881088 100.991615,198.303482 
z"/>
<path fill="#2E2E36" opacity="1.000000" stroke="none" 
	d="
M160.785278,10.819443 
	C167.099503,10.279598 170.278381,12.959599 172.392334,18.474031 
	C201.752487,95.062469 231.284805,171.584885 260.750397,248.132950 
	C261.447815,249.944717 261.860107,251.866241 262.527618,254.155731 
	C261.186615,254.310379 260.254486,254.515839 259.323547,254.510773 
	C241.000778,254.410889 222.677307,254.141479 204.356033,254.251328 
	C198.487961,254.286514 196.620422,250.495636 195.082458,246.189468 
	C189.330383,230.084229 183.760284,213.914078 178.029541,197.801117 
	C165.738739,163.243423 153.411713,128.698532 141.033875,94.171936 
	C139.755249,90.605392 138.033752,87.197601 136.153915,82.880592 
	C135.268295,84.639832 134.619965,85.636635 134.238693,86.726845 
	C115.768669,139.539124 97.326317,192.361099 78.866890,245.177078 
	C76.198273,252.812546 73.812874,254.503296 65.618561,254.514511 
	C48.790115,254.537537 31.961596,254.514236 15.133123,254.494690 
	C13.829924,254.493164 12.526863,254.371704 10.405679,254.264755 
	C11.747585,250.185898 12.803978,246.427917 14.203259,242.802292 
	C42.839806,168.602432 71.512817,94.416641 100.187111,20.231361 
	C103.404472,11.907503 105.164406,10.799623 114.337807,10.815128 
	C129.663300,10.841034 144.988876,10.814809 160.785278,10.819443 
z"/>
<path fill="#DC4E55" opacity="1.000000" stroke="none" 
	d="
M100.780823,197.987915 
	C101.136719,196.881088 101.699982,195.400665 102.270576,195.397827 
	C125.691269,195.281769 149.112625,195.298553 173.943771,195.298553 
	C161.258621,215.112000 149.239334,233.885391 136.659012,253.535126 
	C124.489929,234.691071 112.740768,216.497269 100.780823,197.987915 
z"/>
</svg>